# 3ds Max Wavefront OBJ Exporter v0.99 - (c)2007 guruware
# File Created: 21.08.2023 21:53:42

mtllib Coisa.mtl

#
# object Box001
#

v  -7.22 0.07 17.85
v  -7.22 0.07 -1.27
v  9.82 0.07 -1.27
v  9.82 0.07 17.85
v  3.24 35.36 11.27
v  3.24 35.36 5.31
v  -0.64 35.36 5.31
v  -0.64 35.36 11.27
v  9.82 23.04 17.85
v  -7.22 23.04 17.85
v  -7.22 23.04 -1.27
v  9.82 23.04 -1.27
v  -7.22 10.43 13.48
v  9.82 10.61 13.48
v  9.82 8.72 12.80
v  -7.22 8.55 12.80
v  -7.22 12.44 13.48
v  9.82 12.61 13.48
v  -7.22 14.32 12.80
v  9.82 14.50 12.80
v  -7.22 15.86 11.51
v  9.82 16.03 11.51
v  -7.22 16.86 9.77
v  9.82 17.04 9.77
v  -7.22 17.21 7.80
v  9.82 17.38 7.80
v  -7.22 16.86 5.82
v  9.82 17.04 5.82
v  -7.22 15.86 4.09
v  9.82 16.03 4.09
v  -7.22 14.32 2.80
v  9.82 14.50 2.80
v  -7.22 12.44 2.11
v  9.82 12.61 2.11
v  -7.22 10.43 2.11
v  9.82 10.61 2.11
v  -7.22 8.55 2.80
v  9.82 8.72 2.80
v  -7.22 7.01 4.09
v  9.82 7.19 4.09
v  9.82 6.18 5.82
v  -7.22 6.01 5.82
v  -7.22 5.66 7.80
v  9.82 5.84 7.80
v  -7.22 6.01 9.77
v  9.82 6.18 9.77
v  -7.22 7.01 11.51
v  9.82 7.19 11.51
# 48 vertices

vn 0.00 -1.00 -0.00
vn 0.00 1.00 -0.00
vn 0.00 0.00 1.00
vn 0.00 0.00 -1.00
vn -0.00 0.17 -0.98
vn -0.00 0.17 -0.99
vn -0.01 0.50 -0.87
vn 0.00 -0.17 -0.99
vn 0.00 -0.17 -0.98
vn 0.01 -0.50 -0.87
vn 0.01 -0.77 -0.64
vn 0.01 -0.94 -0.34
vn 0.01 -1.00 -0.00
vn 0.01 -1.00 0.00
vn 0.01 -0.94 0.34
vn 0.01 -0.77 0.64
vn 0.01 -0.50 0.87
vn 0.00 -0.17 0.99
vn 0.00 -0.17 0.98
vn -0.00 0.17 0.98
vn -0.00 0.17 0.99
vn -0.01 0.50 0.87
vn -0.01 0.77 0.64
vn -0.01 0.94 0.34
vn -0.01 1.00 0.00
vn -0.01 0.94 -0.34
vn -0.01 0.77 -0.64
vn 1.00 0.00 -0.00
vn -1.00 0.00 -0.00
vn -0.88 0.47 -0.00
vn 0.00 0.47 0.88
vn 0.88 0.47 -0.00
vn 0.00 0.47 -0.88
# 33 vertex normals

vt 1.92 -2.68 -3.32
vt 1.92 0.50 -3.32
vt -0.92 0.50 -3.32
vt -0.92 -2.68 -3.32
vt 0.82 -1.59 2.55
vt 0.82 -0.59 2.55
vt 0.18 -0.59 2.55
vt 0.18 -1.59 2.55
vt -0.92 -3.32 -2.68
vt 1.92 -3.32 -2.68
vt 1.92 0.50 -2.68
vt -0.92 0.50 -2.68
vt -0.92 -3.32 0.50
vt 1.92 -3.32 0.50
vt 1.92 0.50 0.50
vt -0.92 0.50 0.50
vt 1.92 -1.60 -1.95
vt -0.92 -1.57 -1.95
vt -0.92 -1.88 -1.84
vt 1.92 -1.91 -1.84
vt 1.92 -1.26 -1.95
vt -0.92 -1.23 -1.95
vt 1.92 -0.95 -1.84
vt -0.92 -0.92 -1.84
vt 1.92 -0.69 -1.63
vt -0.92 -0.67 -1.63
vt 1.92 -1.34 -0.53
vt -0.92 -1.34 -0.50
vt -0.92 -1.63 -0.67
vt 1.92 -1.63 -0.69
vt 1.92 -1.01 -0.47
vt -0.92 -1.01 -0.44
vt 1.92 -0.68 -0.53
vt -0.92 -0.68 -0.50
vt 1.92 -0.39 -0.69
vt -0.92 -0.39 -0.67
vt -0.92 -0.69 -0.39
vt -0.92 -0.95 -0.18
vt 1.92 -0.92 -0.18
vt 1.92 -0.67 -0.39
vt -0.92 -1.26 -0.06
vt 1.92 -1.23 -0.06
vt -0.92 -1.60 -0.06
vt 1.92 -1.57 -0.06
vt -0.92 -1.91 -0.18
vt 1.92 -1.88 -0.18
vt -0.92 -2.17 -0.39
vt 1.92 -2.14 -0.39
vt 1.92 -0.68 -2.30
vt 1.92 -0.39 -2.14
vt -0.92 -0.39 -2.17
vt -0.92 -0.68 -2.33
vt -0.92 -1.01 -2.39
vt 1.92 -1.01 -2.36
vt -0.92 -1.34 -2.33
vt 1.92 -1.34 -2.30
vt -0.92 -1.63 -2.17
vt 1.92 -1.63 -2.14
vt -0.92 -2.14 -1.63
vt 1.92 -2.17 -1.63
vt 0.50 -3.32 1.92
vt -0.06 -1.23 1.92
vt -0.06 -1.57 1.92
vt -0.18 -1.88 1.92
vt -0.39 -2.14 1.92
vt -0.68 -2.30 1.92
vt -1.01 -2.36 1.92
vt -1.34 -2.30 1.92
vt -2.68 -3.32 1.92
vt -1.63 -2.14 1.92
vt -1.84 -1.88 1.92
vt -1.95 -1.57 1.92
vt -1.95 -1.23 1.92
vt -2.68 0.50 1.92
vt -1.84 -0.92 1.92
vt -1.63 -0.67 1.92
vt -1.34 -0.50 1.92
vt -1.01 -0.44 1.92
vt -0.68 -0.50 1.92
vt 0.50 0.50 1.92
vt -0.39 -0.67 1.92
vt -0.18 -0.92 1.92
vt 0.50 0.50 -0.92
vt 1.06 -1.60 -0.92
vt 1.06 -1.26 -0.92
vt 1.18 -0.95 -0.92
vt 1.39 -0.69 -0.92
vt 1.68 -0.53 -0.92
vt 2.01 -0.47 -0.92
vt 2.34 -0.53 -0.92
vt 3.68 0.50 -0.92
vt 2.63 -0.69 -0.92
vt 2.84 -0.95 -0.92
vt 2.95 -1.26 -0.92
vt 2.95 -1.60 -0.92
vt 3.68 -3.32 -0.92
vt 2.84 -1.91 -0.92
vt 2.63 -2.17 -0.92
vt 2.34 -2.33 -0.92
vt 2.01 -2.39 -0.92
vt 1.68 -2.33 -0.92
vt 0.50 -3.32 -0.92
vt 1.39 -2.17 -0.92
vt 1.18 -1.91 -0.92
vt 2.59 2.55 0.18
vt 1.59 2.55 0.18
vt 0.82 2.55 -1.59
vt 0.18 2.55 -1.59
vt -0.59 2.55 0.82
vt -1.59 2.55 0.82
vt 0.82 2.55 -0.59
vt 0.18 2.55 -0.59
# 112 texture coords

o Box001
g Box001
usemtl 01___Default
f 1/1/1 2/2/1 3/3/1 
f 3/3/1 4/4/1 1/1/1 
f 5/5/2 6/6/2 7/7/2 
f 7/7/2 8/8/2 5/5/2 
f 1/9/3 4/10/3 9/11/3 
f 9/11/3 10/12/3 1/9/3 
f 3/13/4 2/14/4 11/15/4 
f 11/15/4 12/16/4 3/13/4 
f 13/17/5 14/18/6 15/19/7 
f 15/19/7 16/20/7 13/17/5 
f 17/21/8 18/22/9 14/18/6 
f 14/18/6 13/17/5 17/21/8 
f 19/23/10 20/24/10 18/22/9 
f 18/22/9 17/21/8 19/23/10 
f 20/24/10 19/23/10 21/25/11 
f 21/25/11 22/26/11 20/24/10 
f 23/27/12 24/28/12 22/29/11 
f 22/29/11 21/30/11 23/27/12 
f 25/31/13 26/32/14 24/28/12 
f 24/28/12 23/27/12 25/31/13 
f 25/31/13 27/33/15 28/34/15 
f 28/34/15 26/32/14 25/31/13 
f 27/33/15 29/35/16 30/36/16 
f 30/36/16 28/34/15 27/33/15 
f 29/37/16 31/38/17 32/39/17 
f 32/39/17 30/40/16 29/37/16 
f 31/38/17 33/41/18 34/42/19 
f 34/42/19 32/39/17 31/38/17 
f 33/41/18 35/43/20 36/44/21 
f 36/44/21 34/42/19 33/41/18 
f 35/43/20 37/45/22 38/46/22 
f 38/46/22 36/44/21 35/43/20 
f 37/45/22 39/47/23 40/48/23 
f 40/48/23 38/46/22 37/45/22 
f 41/49/24 40/50/23 39/51/23 
f 39/51/23 42/52/24 41/49/24 
f 42/52/24 43/53/25 44/54/25 
f 44/54/25 41/49/24 42/52/24 
f 45/55/26 46/56/26 44/54/25 
f 44/54/25 43/53/25 45/55/26 
f 47/57/27 48/58/27 46/56/26 
f 46/56/26 45/55/26 47/57/27 
f 16/20/7 15/19/7 48/59/27 
f 48/59/27 47/60/27 16/20/7 
f 3/61/28 34/62/28 36/63/28 
f 3/61/28 36/63/28 38/64/28 
f 3/61/28 38/64/28 40/65/28 
f 3/61/28 40/65/28 41/66/28 
f 3/61/28 41/66/28 44/67/28 
f 3/61/28 44/67/28 46/68/28 
f 4/69/28 3/61/28 46/68/28 
f 4/69/28 46/68/28 48/70/28 
f 4/69/28 48/70/28 15/71/28 
f 4/69/28 15/71/28 14/72/28 
f 4/69/28 14/72/28 18/73/28 
f 9/74/28 4/69/28 18/73/28 
f 9/74/28 18/73/28 20/75/28 
f 9/74/28 20/75/28 22/76/28 
f 9/74/28 22/76/28 24/77/28 
f 9/74/28 24/77/28 26/78/28 
f 9/74/28 26/78/28 28/79/28 
f 12/80/28 9/74/28 28/79/28 
f 12/80/28 28/79/28 30/81/28 
f 12/80/28 30/81/28 32/82/28 
f 12/80/28 32/82/28 34/62/28 
f 12/80/28 34/62/28 3/61/28 
f 11/83/29 35/84/29 33/85/29 
f 11/83/29 33/85/29 31/86/29 
f 11/83/29 31/86/29 29/87/29 
f 11/83/29 29/87/29 27/88/29 
f 11/83/29 27/88/29 25/89/29 
f 11/83/29 25/89/29 23/90/29 
f 10/91/29 11/83/29 23/90/29 
f 10/91/29 23/90/29 21/92/29 
f 10/91/29 21/92/29 19/93/29 
f 10/91/29 19/93/29 17/94/29 
f 10/91/29 17/94/29 13/95/29 
f 1/96/29 10/91/29 13/95/29 
f 1/96/29 13/95/29 16/97/29 
f 1/96/29 16/97/29 47/98/29 
f 1/96/29 47/98/29 45/99/29 
f 1/96/29 45/99/29 43/100/29 
f 1/96/29 43/100/29 42/101/29 
f 2/102/29 1/96/29 42/101/29 
f 2/102/29 42/101/29 39/103/29 
f 2/102/29 39/103/29 37/104/29 
f 2/102/29 37/104/29 35/84/29 
f 2/102/29 35/84/29 11/83/29 
f 11/83/30 10/91/30 8/105/30 
f 8/105/30 7/106/30 11/83/30 
f 10/12/31 9/11/31 5/107/31 
f 5/107/31 8/108/31 10/12/31 
f 9/74/32 12/80/32 6/109/32 
f 6/109/32 5/110/32 9/74/32 
f 12/16/33 11/15/33 7/111/33 
f 7/111/33 6/112/33 12/16/33 
# 96 faces

